# Blender 3.4.1
# www.blender.org
mtllib diamond.mtl
o Cube
v -2.294424 -0.476577 0.111114
v -1.399275 -0.781455 0.180741
v -2.294424 -0.201532 0.262759
v -1.399275 -0.327816 0.430853
v -2.294424 0.201532 0.262759
v -1.399275 0.327816 0.430853
v -2.294424 0.476577 0.111114
v -1.399275 0.781455 0.180741
v -2.294424 -0.201532 -0.262759
v -1.399275 -0.327816 -0.430853
v -2.294424 -0.476577 -0.111114
v -1.399275 -0.781455 -0.180741
v -2.294424 0.476577 -0.111114
v -1.399275 0.781455 -0.180741
v -2.294424 0.201532 -0.262759
v -1.399275 0.327816 -0.430853
v 2.294424 -0.201532 0.262759
v 1.399275 -0.327816 0.430853
v 2.294424 -0.476577 0.111114
v 1.399275 -0.781455 0.180741
v 2.294424 0.476577 0.111114
v 1.399275 0.781455 0.180741
v 2.294424 0.201532 0.262759
v 1.399275 0.327816 0.430853
v 2.294424 -0.476577 -0.111114
v 1.399275 -0.781455 -0.180741
v 2.294424 -0.201532 -0.262759
v 1.399275 -0.327816 -0.430853
v 2.294424 0.201532 -0.262759
v 1.399275 0.327816 -0.430853
v 2.294424 0.476577 -0.111114
v 1.399275 0.781455 -0.180741
vn -0.0000 0.4828 0.8757
vn -0.0000 -0.4828 -0.8757
vn -0.0000 -0.0000 1.0000
vn -0.0000 0.4828 -0.8757
vn -0.0000 -0.0000 -1.0000
vn 1.0000 -0.0000 -0.0000
vn -0.0000 -1.0000 -0.0000
vn -0.0000 1.0000 -0.0000
vn -1.0000 -0.0000 -0.0000
vn 0.2265 -0.4703 -0.8530
vn -0.2265 -0.4703 -0.8530
vn -0.2265 0.4703 -0.8530
vn 0.2265 0.4703 -0.8530
vn -0.2265 -0.4703 0.8530
vn 0.2265 -0.4703 0.8530
vn 0.2265 0.4703 0.8530
vn -0.2265 0.4703 0.8530
vn -0.3224 -0.9466 -0.0000
vn 0.3224 -0.9466 -0.0000
vn -0.1846 -0.0000 0.9828
vn -0.3224 0.9466 -0.0000
vn -0.1846 -0.0000 -0.9828
vn 0.1846 -0.0000 0.9828
vn 0.3224 0.9466 -0.0000
vn 0.1846 -0.0000 -0.9828
vn -0.0000 -0.4828 0.8757
vt 0.423768 0.092763
vt 0.375000 0.072563
vt 0.173768 0.677437
vt 0.467763 0.048768
vt 0.447563 0.951232
vt 0.447563 0.000000
vt 0.173768 0.750000
vt 0.532237 0.048768
vt 0.552437 0.951232
vt 0.552437 0.000000
vt 0.576232 0.092763
vt 0.625000 0.951232
vt 0.826232 0.677437
vt 0.625000 0.072563
vt 0.467763 0.201232
vt 0.173768 0.500000
vt 0.447563 0.250000
vt 0.447563 0.298768
vt 0.423768 0.157237
vt 0.173768 0.572563
vt 0.375000 0.177437
vt 0.576232 0.157237
vt 0.625000 0.298768
vt 0.826232 0.572563
vt 0.625000 0.177437
vt 0.532237 0.201232
vt 0.552437 0.250000
vt 0.552437 0.298768
vt 0.467763 0.701232
vt 0.447563 0.750000
vt 0.447563 0.798768
vt 0.326232 0.750000
vt 0.423768 0.657237
vt 0.375000 0.677437
vt 0.326232 0.677437
vt 0.576232 0.657237
vt 0.625000 0.798768
vt 0.625000 0.677437
vt 0.673768 0.677437
vt 0.532237 0.701232
vt 0.552437 0.750000
vt 0.552437 0.798768
vt 0.423768 0.592763
vt 0.375000 0.572563
vt 0.326232 0.572563
vt 0.467763 0.548768
vt 0.326232 0.500000
vt 0.447563 0.500000
vt 0.447563 0.451232
vt 0.532237 0.548768
vt 0.552437 0.500000
vt 0.552437 0.451232
vt 0.576232 0.592763
vt 0.625000 0.451232
vt 0.625000 0.572563
vt 0.673768 0.572563
s 0
f 22/37/1 8/12/1 6/9/1 24/42/1
f 26/45/2 12/20/2 10/16/2 28/47/2
f 18/31/3 24/42/3 6/9/3 4/5/3
f 14/23/4 32/54/4 30/52/4 16/28/4
f 10/18/5 16/28/5 30/52/5 28/49/5
f 25/43/6 27/46/6 29/50/6 31/53/6 21/36/6 23/40/6 17/29/6 19/33/6
f 12/20/7 26/45/7 20/35/7 2/3/7
f 32/56/8 14/24/8 8/13/8 22/39/8
f 1/1/9 3/4/9 5/8/9 7/11/9 13/22/9 15/26/9 9/15/9 11/19/9
f 27/46/10 25/43/10 26/44/10 28/48/10
f 11/19/11 9/15/11 10/17/11 12/21/11
f 15/26/12 13/22/12 14/25/12 16/27/12
f 31/53/13 29/50/13 30/51/13 32/55/13
f 3/4/14 1/1/14 2/2/14 4/6/14
f 19/33/15 17/29/15 18/30/15 20/34/15
f 23/40/16 21/36/16 22/38/16 24/41/16
f 7/11/17 5/8/17 6/10/17 8/14/17
f 1/1/18 11/19/18 12/21/18 2/2/18
f 25/43/19 19/33/19 20/35/19 26/45/19
f 4/6/20 6/10/20 5/8/20 3/4/20
f 8/14/21 14/25/21 13/22/21 7/11/21
f 16/28/22 10/18/22 9/15/22 15/26/22
f 17/29/23 23/40/23 24/42/23 18/31/23
f 21/36/24 31/53/24 32/56/24 22/39/24
f 29/50/25 27/46/25 28/49/25 30/52/25
f 2/3/26 20/35/26 18/32/26 4/7/26
